#!OML:ASF H:\Dans Jumps\Project 1\Capture day 1\Session 1\subject.ASF
:FULLY-SPECIFIED
:DEGREES
444
root 0.219434 16.5393 4.16915 1.18194 3.52216 -0.665318
lowerback 9.93625 0.193716 -0.919276
upperback 8.43716 0.176965 2.00166
thorax 3.21849 -0.00757087 2.58346
lowerneck -7.43622 -0.68017 -2.48113
upperneck 27.3436 -0.735511 0.956308
head 9.88601 -0.47005 0.688308
rclavicle 8.94531e-015 1.98785e-015
rhumerus -24.8624 -13.8584 -79.1811
rradius 27.1936
rwrist 31.4772
rhand -17.1207 -25.3291
rfingers 7.12502
rthumb 9.11886 -55.112
lclavicle 8.94531e-015 1.98785e-015
lhumerus -36.5005 6.6209 83.972
lradius 9.52308
lwrist 5.0749
lhand -17.4567 -3.58308
lfingers 7.12502
lthumb 8.79464 26.2137
rfemur -38.9529 -3.98796 19.5911
rtibia 33.2473
rfoot 5.46064 1.32934
rtoes 9.90505
lfemur -36.3647 5.44159 -20.4313
ltibia 29.4141
lfoot -5.13742 0.918574
ltoes -18.091
445
root 0.211076 16.3159 4.34768 0.0891846 3.54221 -0.937944
lowerback 10.8208 0.245245 -0.695436
upperback 8.36591 0.263465 2.05393
thorax 2.65702 0.0502348 2.50316
lowerneck -7.54859 -0.703929 -2.43499
upperneck 27.5122 -0.789741 1.01645
head 9.96991 -0.484011 0.696194
rclavicle -9.74045e-015 1.19271e-015
rhumerus -24.5219 -14.2208 -79.1738
rradius 26.9397
rwrist 31.9975
rhand -17.512 -25.7189
rfingers 7.12502
rthumb 8.7413 -55.5179
lclavicle -9.74045e-015 1.19271e-015
lhumerus -36.0985 6.5966 84.2245
lradius 8.84736
lwrist 5.61107
lhand -18.2761 -3.63892
lfingers 7.12502
lthumb 8.00386 26.1895
rfemur -39.5137 -3.44349 19.8469
rtibia 37.2239
rfoot 2.80458 0.951901
rtoes 12.2603
lfemur -37.536 4.7749 -19.8091
ltibia 33.713
lfoot -3.91406 0.598059
ltoes -14.9248
446
root 0.199061 16.0853 4.51075 -0.856831 3.34822 -1.29069
lowerback 11.7173 0.348073 -0.456813
upperback 8.36165 0.422376 2.13971
thorax 2.16069 0.141576 2.44135
lowerneck -7.79169 -0.705845 -2.42143
upperneck 27.4903 -0.800804 1.06265
head 10.0092 -0.482056 0.708353
rclavicle 1.03368e-014 -1.59028e-015
rhumerus -23.8176 -14.6148 -79.259
rradius 26.6517
rwrist 32.5981
rhand -17.9934 -26.2232
rfingers 7.12502
rthumb 8.27666 -56.041
lclavicle 1.03368e-014 -1.59028e-015
lhumerus -35.255 6.69972 84.5337
lradius 8.06994
lwrist 6.26244
lhand -19.3031 -4.00015
lfingers 7.12502
lthumb 7.01255 25.8637
rfemur -40.6892 -2.6882 20.1942
rtibia 41.6734
rfoot 0.667579 0.275853
rtoes 13.9219
lfemur -39.1124 4.07899 -18.9577
ltibia 38.36
lfoot -2.83435 0.12177
ltoes -11.9947
447
root 0.184221 15.8581 4.6706 -1.66537 2.87262 -1.6573
lowerback 12.5298 0.533176 -0.263105
upperback 8.43853 0.687667 2.23838
thorax 1.79438 0.28135 2.40458
lowerneck -8.07547 -0.68558 -2.42148
upperneck 27.2843 -0.766829 1.07059
head 9.98836 -0.464316 0.713417
rclavicle -1.15295e-014 -1.19271e-015
rhumerus -22.8194 -14.982 -79.4329
rradius 26.3244
rwrist 33.3217
rhand -18.5059 -26.7613
rfingers 7.12502
rthumb 7.78206 -56.5981
lclavicle -1.15295e-014 -1.19271e-015
lhumerus -34.1171 6.87119 84.861
lradius 7.40348
lwrist 6.90187
lhand -20.4429 -4.48697
lfingers 7.12502
lthumb 5.91221 25.4105
rfemur -42.173 -1.73973 20.556
rtibia 46.0374
rfoot -0.889573 -0.327807
rtoes 14.8561
lfemur -40.796 3.55961 -17.9919
ltibia 42.8109
lfoot -2.17437 -0.295717
ltoes -10.2239
448
root 0.169788 15.6542 4.83382 -2.38442 2.16982 -1.94656
lowerback 13.1769 0.79435 -0.156
upperback 8.61846 1.04316 2.31945
thorax 1.62433 0.460785 2.3854
lowerneck -8.34905 -0.649321 -2.39492
upperneck 26.9459 -0.695763 1.00442
head 9.91663 -0.434461 0.691444
rclavicle -5.96354e-016 1.98785e-015
rhumerus -21.6151 -15.1588 -79.7014
rradius 26.0104
rwrist 34.064
rhand -18.9236 -27.2948
rfingers 7.12502
rthumb 7.37893 -57.1461
lclavicle -5.96354e-016 1.98785e-015
lhumerus -32.8291 7.04338 85.1767
lradius 7.04596
lwrist 7.4457
lhand -21.5159 -5.1081
lfingers 7.12502
lthumb 4.87626 24.8158
rfemur -43.5182 -0.777661 20.8811
rtibia 49.7948
rfoot -2.06392 -0.626311
rtoes 14.3017
lfemur -42.2041 3.30318 -17.0802
ltibia 46.5899
lfoot -1.98013 -0.519108
ltoes -9.51844
449
root 0.158574 15.4997 4.99902 -3.10106 1.35006 -2.08615
lowerback 13.6776 1.11001 -0.149967
upperback 8.87422 1.45688 2.35799
thorax 1.61147 0.664934 2.37
lowerneck -8.5624 -0.609721 -2.30796
upperneck 26.6366 -0.612789 0.86061
head 9.8437 -0.401634 0.633647
rclavicle -1.98785e-016 1.23246e-014
rhumerus -20.3512 -15.0569 -80.0153
rradius 25.7227
rwrist 34.7729
rhand -19.1902 -27.6802
rfingers 7.12502
rthumb 7.12151 -57.5404
lclavicle -1.98785e-016 1.23246e-014
lhumerus -31.5959 7.13835 85.4569
lradius 7.16223
lwrist 7.79617
lhand -22.3716 -5.77147
lfingers 7.12502
lthumb 4.04991 24.1698
rfemur -44.3027 -0.0420174 21.1433
rtibia 52.6156
rfoot -3.16359 -0.568313
rtoes 13.0804
lfemur -43.0247 3.31476 -16.38
ltibia 49.4094
lfoot -2.15142 -0.27552
ltoes -10.3799
450
root 0.154064 15.3915 5.16596 -3.87712 0.580137 -2.05254
lowerback 14.0791 1.42135 -0.2044
upperback 9.17212 1.85606 2.3388
thorax 1.69816 0.860187 2.32913
lowerneck -8.66006 -0.579363 -2.1536
upperneck 26.4702 -0.543095 0.656721
head 9.80038 -0.375397 0.542823
rclavicle -1.72943e-014 -2.3059e-014
rhumerus -19.1239 -14.5653 -80.3572
rradius 25.5069
rwrist 35.3473
rhand -19.2859 -27.8695
rfingers 7.12502
rthumb 7.02917 -57.7327
lclavicle -1.72943e-014 -2.3059e-014
lhumerus -30.5143 7.1273 85.6776
lradius 7.77499
lwrist 7.86512
lhand -22.8615 -6.26564
lfingers 7.12502
lthumb 3.57688 23.6841
rfemur -44.3431 0.335992 21.3113
rtibia 54.5132
rfoot -4.25647 -0.289975
rtoes 11.5567
lfemur -43.1864 3.50135 -15.9859
ltibia 51.3124
lfoot -2.46774 0.14892
ltoes -11.3733
